# xmcd
#
# Track frame offsets:
# 150
# 14362
# 31215
# 47567
# 62435
# 71145
# 86615
# 107412
# 120720
# 137725
# 161972
# 178740
# 185582
# 201537
# 223982
# 235590
# 248727
# 267332
# 281267
# 299190
#
# Disc length: 4264 seconds
#
# Revision: 3
# Processed by: cddbd v1.5.1PL0 Copyright (c) Steve Scherf et al.
# Submitted via: plextools 2.19a
#
DISCID=3510a614
DTITLE=今堀恒雄 - Trigun the 1st DONUT
DYEAR=1900
DGENRE=Soundtrack
TTITLE0=今堀恒雄 - NO-BEAT
TTITLE1=今堀恒雄 - BIG BLUFF
TTITLE2=今堀恒雄 - BLOOD AND THUNDER
TTITLE3=今堀恒雄 - KNIVES
TTITLE4=今堀恒雄 - Permanent Vacation
TTITLE5=今堀恒雄 - BLUE FUNK
TTITLE6=今堀恒雄 - PHILOSOPHY in a Tea Cup
TTITLE7=今堀恒雄 - NOT AN ANGEL
TTITLE8=今堀恒雄 - Cynical Pink
TTITLE9=今堀恒雄 - Sound Life ~LEM
TTITLE10=今堀恒雄 - 風は未来に吹く
TTITLE11=今堀恒雄 - H.T
TTITLE12=今堀恒雄 - WINNERS
TTITLE13=今堀恒雄 - Never could have been worse
TTITLE14=今堀恒雄 - Stories to Tell
TTITLE15=今堀恒雄 - People Everyday
TTITLE16=今堀恒雄 - Fool's Paradise
TTITLE17=今堀恒雄 - YELLOW ALERT
TTITLE18=今堀恒雄 - Carrot and Stick
TTITLE19=今堀恒雄 - Perfect Night
EXTD=
EXTT0=
EXTT1=
EXTT2=
EXTT3=
EXTT4=
EXTT5=
EXTT6=
EXTT7=
EXTT8=
EXTT9=
EXTT10=
EXTT11=
EXTT12=
EXTT13=
EXTT14=
EXTT15=
EXTT16=
EXTT17=
EXTT18=
EXTT19=
PLAYORDER=
